<svg
        width="275"
        height="160"
        viewBox="0 0 275 200"
        fill="none"
        xmlns="http://www.w3.org/2000/svg"
>
    <path
            d="M263.218 116.18C263.218 116.18 260.711 116.482 256.795 116.784C251.534 117.195 243.765 117.607 236.079 117.333C232.804 117.223 229.537 116.976 226.499 116.555C219.518 116.866 207.467 92.5269 211.53 88.2905L217.514 84.0998C222.226 85.2893 230.48 99.1698 230.864 102.747L247.389 97.2941C264.993 86.3873 269.889 110.635 263.218 116.18Z"
            fill="#88D9E2"
    />
    <path
            d="M211.448 90.9074C211.448 90.9074 209.517 90.2944 209.801 88.7023C210.085 87.101 217.212 81.2908 219.097 84.292C220.323 86.2501 213.516 91.3649 211.448 90.9074Z"
            fill="#88D9E2"
    />
    <path
            d="M211.439 88.1807L209.581 84.9416C208.099 82.5352 212.774 78.9941 214.44 80.6319L216.727 84.0449C217.725 85.1063 212.692 89.0591 211.439 88.1807Z"
            fill="#F7A594"
    />
    <path
            d="M256.795 116.784C251.533 117.195 243.765 117.607 236.079 117.333C240.224 117.022 250.92 109.83 253.775 98.511C257.737 109.436 255.788 112.922 256.795 116.784Z"
            fill="#88D9E2"
    />
    <path
            d="M209.426 85.5089C206.398 87.1651 200.038 83.6881 196.964 77.6308C196.964 77.6308 199.032 77.1092 201.054 77.0818C201.127 76.0204 203.369 75.3341 204.43 75.2243C207.276 74.9132 211.128 77.5576 213.626 79.5797C218.86 85.573 209.426 85.5089 209.426 85.5089Z"
            fill="#F7A594"
    />
    <path
            d="M201.758 78.317C202.81 78.9667 204.064 78.7105 205.107 78.436C204.485 80.6503 206.589 80.9339 208.474 82.2332C208.474 82.2332 203.972 82.9378 202.591 81.4921C201.218 80.0647 201.758 78.317 201.758 78.317Z"
            fill="#DE3C0F"
    />
    <path
            d="M202.197 87.7324H183.879C183.495 87.7324 183.184 87.4213 183.184 87.037V76.6426C183.184 76.2583 183.495 75.9472 183.879 75.9472H202.197C202.582 75.9472 202.893 76.2583 202.893 76.6426V87.037C202.893 87.4213 202.582 87.7324 202.197 87.7324Z"
            fill="#4D93FF"
    />
    <path
            d="M202.893 78.1707H183.184V80.202H202.893V78.1707Z"
            fill="#0046B3"
    />
    <path
            d="M187.694 85.4724H184.803C184.62 85.4724 184.474 85.6188 184.474 85.8018C184.474 85.9848 184.62 86.1312 184.803 86.1312H187.704C187.887 86.1312 188.033 85.9848 188.033 85.8018C188.033 85.6279 187.887 85.4724 187.694 85.4724Z"
            fill="#D1F5FF"
    />
    <path
            d="M192.16 85.4724H189.259C189.076 85.4724 188.93 85.6188 188.93 85.8018C188.93 85.9848 189.076 86.1312 189.259 86.1312H192.16C192.343 86.1312 192.489 85.9848 192.489 85.8018C192.489 85.6279 192.343 85.4724 192.16 85.4724Z"
            fill="#D1F5FF"
    />
    <path
            d="M196.616 85.4724H193.715C193.532 85.4724 193.386 85.6188 193.386 85.8018C193.386 85.9848 193.532 86.1312 193.715 86.1312H196.616C196.799 86.1312 196.945 85.9848 196.945 85.8018C196.945 85.6279 196.799 85.4724 196.616 85.4724Z"
            fill="#D1F5FF"
    />
    <path
            d="M201.072 85.4724H198.171C197.988 85.4724 197.842 85.6188 197.842 85.8018C197.842 85.9848 197.988 86.1312 198.171 86.1312H201.072C201.255 86.1312 201.401 85.9848 201.401 85.8018C201.401 85.6279 201.255 85.4724 201.072 85.4724Z"
            fill="#D1F5FF"
    />
    <path
            d="M184.666 76.5419C184.465 76.5419 184.3 76.7066 184.3 76.9079V77.036C184.3 77.2373 184.465 77.402 184.666 77.402C184.867 77.402 185.032 77.2373 185.032 77.036V76.9079C185.032 76.7066 184.867 76.5419 184.666 76.5419Z"
            fill="#D1F5FF"
    />
    <path
            d="M185.462 76.9811C185.462 77.219 185.654 77.4112 185.892 77.4112H187.429C187.667 77.4112 187.859 77.219 187.859 76.9811C187.859 76.7432 187.667 76.5511 187.429 76.5511H185.892C185.654 76.5419 185.462 76.7432 185.462 76.9811Z"
            fill="#D1F5FF"
    />
    <path
            d="M185.261 81.2999H187.247C187.567 81.2999 187.823 81.5561 187.823 81.8764V83.5874C187.823 83.9077 187.567 84.1639 187.247 84.1639H185.261C184.941 84.1639 184.685 83.9077 184.685 83.5874V81.8764C184.685 81.5561 184.941 81.2999 185.261 81.2999Z"
            fill="#FFBD73"
    />
    <path
            d="M203.176 84.3195L200.404 81.9954C198.894 81.2359 197.595 80.4033 196.954 79.3236C196.954 79.3236 197.256 77.4661 199.617 78.4086C201.145 79.0216 201.447 79.7262 202.81 80.3575C204.173 80.9889 207.632 79.5981 208.831 81.1353C210.935 83.7979 208.318 88.1808 203.176 84.3195Z"
            fill="#F7A594"
    />
    <path
            d="M204.823 80.7418C203.46 80.7418 202.215 80.3849 202.133 80.3666L202.087 80.3575L202.06 80.3209C202.032 80.2934 199.708 77.6857 197.787 78.4543C197.704 78.4909 197.613 78.4451 197.576 78.3628C197.54 78.2804 197.585 78.1889 197.668 78.1523C199.699 77.3471 201.959 79.7261 202.27 80.0738C202.636 80.1745 205.171 80.815 206.772 80.0738C206.854 80.0372 206.946 80.0738 206.982 80.1562C207.019 80.2385 206.982 80.33 206.9 80.3666C206.278 80.6411 205.537 80.7418 204.823 80.7418Z"
            fill="#DE3C0F"
    />
    <path
            d="M306.214 147.345H258.039C257.152 141.022 255.441 132.604 254.013 124.25C252.092 113.078 250.646 102.006 252.247 96.1229C256.768 79.4333 282.278 86.5612 290.476 101.979C296.726 114.56 304.293 131.899 306.214 147.345Z"
            fill="#88D9E2"
    />
    <path
            d="M243.088 88.6016C241.615 90.6695 241.011 92.957 242.393 94.3936L246.941 98.6117L255.953 106.938C258.753 109.674 268.434 97.0745 265.616 94.3204L252.687 84.5848C250.418 82.1966 245.522 85.1246 243.088 88.6016Z"
            fill="#F7A594"
    />
    <path
            d="M259.741 89.8918C259.741 89.8918 260.153 92.2891 254.681 96.7177C250.097 100.442 248.45 99.9934 248.45 99.9934C248.45 99.9934 247.681 101.366 249.859 103.031C252.302 107.368 255.322 110.992 260.208 110.845C265.35 110.699 275.406 99.9659 269.248 94.8694C265.908 93.1949 263.804 91.923 263.804 91.923C263.804 91.923 262.138 89.2696 259.741 89.8918Z"
            fill="#88D9E2"
    />
    <path
            d="M224.092 74.5838C221.292 83.8528 227.121 96.5072 235.191 98.9503C243.262 101.393 250.518 92.6917 253.317 83.4227C256.117 74.1538 251.844 64.6652 243.774 62.2313C235.713 59.7883 226.901 65.324 224.092 74.5838Z"
            fill="#F7A594"
    />
    <path
            d="M253.455 82.6541C241.222 79.7719 230.031 78.3628 223.827 75.0688C223.827 75.0688 221.613 79.3693 223.315 82.2607C236.637 89.4526 253.144 83.6057 253.144 83.6057L253.455 82.6541Z"
            fill="#0E0E0E"
    />
    <path
            d="M248.441 86.2867C247.416 88.0343 247.938 89.3611 249.877 89.9101C251.415 90.3493 253.428 89.5075 254.452 87.7598C255.477 86.0122 254.965 84.3835 253.592 83.5783C252.22 82.7639 249.466 84.539 248.441 86.2867Z"
            fill="#F7A594"
    />
    <path
            d="M232.237 89.7728C231.816 89.7728 231.45 89.663 231.166 89.4983C230.562 89.1506 230.261 88.5193 230.352 87.8147C230.416 87.3389 230.627 86.9821 230.974 86.7259C231.725 86.186 232.859 86.4056 232.914 86.4147C233.024 86.433 233.097 86.5428 233.079 86.6618C233.06 86.7716 232.951 86.8448 232.832 86.8265C232.813 86.8265 231.816 86.6343 231.212 87.0644C230.956 87.2474 230.81 87.5128 230.764 87.8696C230.691 88.4095 230.91 88.8761 231.377 89.1415C231.898 89.4434 232.877 89.5166 233.921 88.7205C234.012 88.6473 234.14 88.6656 234.213 88.7571C234.287 88.8486 234.268 88.9768 234.177 89.05C233.472 89.5715 232.804 89.7728 232.237 89.7728Z"
            fill="#803221"
    />
    <path
            d="M234.734 81.5378C234.368 82.6449 235.119 83.8802 236.409 84.3011C237.699 84.722 239.035 84.1639 239.392 83.0567C239.749 81.9496 239.007 80.7143 237.717 80.2934C236.692 80.6685 235.979 81.062 234.734 81.5378Z"
            fill="white"
    />
    <path
            d="M224.395 78.3811C224.038 79.4882 224.496 80.7143 225.639 81.1993C226.783 81.6842 227.863 81.0071 228.32 79.9366C227.817 79.1131 227.588 78.8752 226.93 77.7497C226.262 76.606 224.834 77.0177 224.395 78.3811Z"
            fill="white"
    />
    <path
            d="M236.171 82.7181C236.198 83.3037 236.5 83.7704 236.83 83.7521C237.159 83.7338 237.406 83.2397 237.379 82.6541C237.351 82.0685 237.049 81.6018 236.72 81.6201C236.391 81.6384 236.144 82.1325 236.171 82.7181Z"
            fill="#0E0E0E"
    />
    <path
            d="M225.649 79.8725C225.713 80.4581 226.033 80.9065 226.363 80.8699C226.692 80.8333 226.912 80.33 226.847 79.7444C226.783 79.1588 226.463 78.7105 226.134 78.7471C225.804 78.7837 225.585 79.2869 225.649 79.8725Z"
            fill="#88D9E2"
    />
    <path
            d="M242.393 90.8342C242.393 90.8342 237.891 93.9178 232.264 91.7858C233.426 96.2876 235.658 96.7543 235.658 96.7543C235.658 96.7543 240.398 95.7752 242.393 90.8342Z"
            fill="white"
    />
    <path
            d="M243.601 91.9322C243.556 91.9322 243.519 91.9231 243.482 91.8956C243.391 91.8316 243.363 91.7035 243.437 91.612C243.601 91.3832 243.647 90.8708 243.418 90.3767C243.281 90.0748 242.933 89.5624 242.156 89.4983C242.046 89.4892 241.954 89.3885 241.964 89.2787C241.973 89.1689 242.073 89.0774 242.183 89.0866C242.906 89.1506 243.482 89.5624 243.784 90.2029C244.05 90.7793 244.041 91.4656 243.766 91.8499C243.729 91.9048 243.665 91.9322 243.601 91.9322Z"
            fill="#BD4A31"
    />
    <path
            d="M243.775 78.7379C243.775 78.7379 241.515 79.8908 239.383 78.1706C237.251 76.4504 236.345 74.3276 236.345 74.3276C236.345 74.3276 233.481 77.2007 229.968 74.5472C228.174 73.2022 229.016 71.1068 229.016 71.1068C223.599 74.1172 215.52 71.3173 216.801 65.9188C219.619 60.7033 223.983 64.5005 225.054 66.5501C226.253 66.5776 237.333 69.4507 243.775 78.7379Z"
            fill="#BD4A31"
    />
    <path
            d="M248.35 100.323C248.35 100.323 251.543 93.259 247.499 84.4018C244.388 77.5942 236.802 71.1526 225.026 66.5501C234.487 53.7035 249.484 54.8747 249.484 54.8747C262.724 56.6224 264.719 72.9094 266.604 82.3613C273.055 83.8985 270.081 87.7873 269.468 88.0618C260.263 92.1427 255.002 98.447 252.961 101.009C251.662 102.638 248.835 102.528 248.35 100.323Z"
            fill="#88D9E2"
    />
    <path
            d="M251.269 108.091L249.53 125.677C246.273 124.149 230.526 122.155 225.1 126.153L225.585 133.446C227.103 139.11 251.589 144.069 256.997 139.64C270.648 132.092 275.571 104.029 275.571 104.029C274.766 95.1073 254.453 89.0683 251.269 108.091Z"
            fill="#88D9E2"
    />
    <path
            d="M227.781 134.873C227.781 134.873 226.253 136.209 225.036 135.139C223.819 134.068 222.529 124.964 226.079 124.9C228.394 124.863 229.245 133.336 227.781 134.873Z"
            fill="#88D9E2"
    />
    <path
            d="M225.566 133.729L220.058 133.537C217.277 133.061 219.93 126.345 222.254 126.172L225.74 126.556C226.866 127.462 226.637 132.65 225.566 133.729Z"
            fill="#F7A594"
    />
    <path
            d="M221.303 133.244C221.303 133.244 220.781 133.546 220.013 133.427H220.004C219.436 133.327 218.75 133.007 218.045 132.156C218.036 132.146 218.036 132.128 218.036 132.128C217.14 131.039 216.225 129.1 215.548 125.714C211.878 121.56 214.697 120.023 216.243 121.075C221.092 124.36 222.172 125.028 223.545 125.897C224.707 126.629 224.945 131.835 221.303 133.244Z"
            fill="#F7A594"
    />
    <path
            d="M220.059 133.537C219.336 133.272 218.476 132.897 218.036 132.156C218.027 132.146 218.027 132.128 218.027 132.128C218.027 132.128 219.162 131.662 220.004 129.2C220.004 129.2 218.924 132.924 220.059 133.537Z"
            fill="#DE3C0F"
    />
    <path
            d="M216.792 121.423C216.792 121.423 215.474 120.663 211.805 117.9C210.726 118.65 210.762 121.276 213.159 122.402C214.797 123.17 216.518 122.493 216.792 121.423Z"
            fill="#F7A594"
    />
    <path
            d="M214.221 122.704C210.908 122.383 210.972 127.581 213.187 130.673C216.572 135.404 219.299 131.103 219.83 129.2C220.818 125.714 218.274 123.097 214.221 122.704Z"
            fill="#F7A594"
    />
    <g mask="url(#mask1_3956_58367)">
        <path
                d="M215.841 133.409C215.813 133.409 215.795 133.4 215.767 133.391C213.095 131.863 212.537 128.139 213.699 125.76C213.736 125.687 213.818 125.659 213.892 125.696C213.965 125.732 213.992 125.815 213.956 125.888C212.848 128.157 213.37 131.698 215.905 133.153C215.969 133.19 215.996 133.281 215.959 133.345C215.932 133.382 215.886 133.409 215.841 133.409Z"
                fill="#DE3C0F"
        />
    </g>
    <path
            d="M250.427 116.957C250.418 116.957 250.409 116.957 250.4 116.957C250.244 116.939 250.125 116.802 250.134 116.637C250.253 115.42 250.336 114.185 250.409 112.996C250.885 105.657 251.333 98.7307 260.748 93.5426C260.886 93.4694 261.069 93.5152 261.142 93.6616C261.215 93.7988 261.169 93.9818 261.023 94.055C251.891 99.0875 251.452 105.859 250.985 113.032C250.903 114.231 250.83 115.466 250.702 116.692C250.702 116.839 250.573 116.957 250.427 116.957Z"
            fill="#0E0E0E"
    />
    <path
            d="M102.362 119.995C100.056 121.825 96.7253 122.393 92.9189 122.182C89.7255 122.008 86.2119 121.276 82.6709 120.233C70.7942 116.784 58.7619 110.031 58.7619 110.031C51.3413 96.6261 63.767 85.0971 75.9365 88.9127C81.1154 92.1609 84.4002 95.3909 87.0903 99.6182C83.8604 93.3962 79.8618 84.7128 83.2565 80.5404C85.5074 78.317 89.1125 75.2517 94.3554 76.002C100.605 78.0608 111.612 112.684 102.362 119.995Z"
            fill="#C4EED7"
    />
    <path
            d="M83.951 82.041C83.8595 82.0319 83.7497 82.0044 83.649 81.9861C83.649 81.9861 83.036 81.7757 82.0569 81.2999C80.172 80.3757 76.9695 78.4817 74.499 75.3249C74.8559 73.0283 77.3538 73.989 78.6531 75.1602C79.2662 75.7184 79.925 75.9014 80.6204 75.9197C81.6909 75.9288 82.853 75.4988 84.0791 75.3615C84.7287 75.2792 85.4058 75.2883 86.0921 75.4805C88.8554 76.2399 88.8096 82.9011 83.951 82.041Z"
            fill="#FF9882"
    />
    <path
            d="M83.9509 82.0411C83.649 81.9038 83.4019 81.7117 83.2372 81.4738L82.7248 80.3941L80.6203 75.9197L76.512 67.1998C74.2885 62.9176 77.4178 61.481 80.172 66.9344C80.053 65.3698 81.4072 63.9607 83.347 66.6874C82.9627 64.9306 84.8293 64.2535 86.5129 66.4586C86.4214 65.1044 88.3429 64.8757 89.4226 67.0259L90.2645 70.018L92.0853 76.4779C93.3754 80.9248 86.5312 83.2397 83.9509 82.0411Z"
            fill="#D97661"
    />
    <path
            d="M90.2648 70.0088C88.8008 69.4598 86.8702 69.9905 85.8728 71.9944C85.1042 73.5499 83.9239 79.6255 82.0481 81.2908C80.1632 80.3666 76.9607 78.4726 74.4902 75.3158C75.4235 71.7382 78.6535 75.9563 80.6116 75.9106L76.5032 67.1906C74.2798 62.9084 77.4091 61.4719 80.1632 66.9253C80.0443 65.3606 81.3985 63.9515 83.3383 66.6782C82.954 64.9214 84.8206 64.2443 86.5042 66.4495C86.4127 65.0953 88.3342 64.8665 89.4139 67.0168L90.2648 70.0088Z"
            fill="#F0836C"
    />
    <path
            d="M85.9644 70.1094C85.205 70.1094 84.4272 69.2402 83.9789 68.6363C83.9972 68.8559 83.988 69.0938 83.8874 69.3134C83.7501 69.6245 83.4848 69.8349 83.1005 69.9539C81.8378 70.3382 80.9594 68.8193 80.9228 68.7552C80.8953 68.7003 80.9136 68.6271 80.9685 68.5997C81.0234 68.5722 81.0966 68.5905 81.1241 68.6454C81.1332 68.6637 81.9476 70.0637 83.0273 69.7434C83.3475 69.6428 83.5671 69.4781 83.6678 69.231C83.8874 68.7186 83.5763 68.0507 83.5671 68.0415C83.5397 67.9866 83.558 67.9134 83.6129 67.886C83.6678 67.8585 83.7318 67.8768 83.7684 67.9317C83.7867 67.9592 85.1684 70.265 86.2298 69.8258C87.2729 69.3957 86.669 67.7487 86.6598 67.7304C86.6415 67.6664 86.669 67.6023 86.7239 67.584C86.7788 67.5566 86.852 67.5932 86.8703 67.6481C86.8794 67.6664 87.6572 69.5421 88.9748 69.3134C89.1944 69.2768 89.3499 69.1761 89.4414 69.0114C89.7068 68.5539 89.4048 67.7396 89.4048 67.7396C89.3865 67.6755 89.414 67.6115 89.4689 67.5932C89.5329 67.5749 89.597 67.6023 89.6153 67.6572C89.6336 67.6938 89.9538 68.5722 89.6427 69.1304C89.5146 69.3591 89.3042 69.4964 89.0114 69.5513C88.1055 69.7068 87.4467 69.048 87.0533 68.4807C87.1082 69.0938 86.9709 69.7709 86.303 70.0545C86.2115 70.0911 86.0925 70.1094 85.9644 70.1094Z"
            fill="#BD4A31"
    />
    <path
            d="M82.6701 72.214C82.6244 72.214 82.5878 72.1865 82.5695 72.1499L80.1905 67.2272C80.163 67.1723 80.1905 67.0991 80.2454 67.0717C80.3003 67.0442 80.3735 67.0717 80.4009 67.1266L82.7799 72.0493C82.8074 72.1042 82.7799 72.1774 82.725 72.2048C82.7067 72.214 82.6884 72.214 82.6701 72.214Z"
            fill="#BD4A31"
    />
    <path
            d="M83.2659 147.152L82.3784 107.112C82.3784 91.0538 73.7591 85.4723 60.1896 85.4723C47.9835 85.4723 39.8583 95.4275 34.9265 108.75C30.6534 120.261 28.7685 134.288 28.6953 146.585C28.6953 146.777 28.6953 146.96 28.6953 147.152H83.2659Z"
            fill="#C4EED7"
    />
    <path
            d="M35.7858 147.152L78.0771 147.82C67.4357 144.334 51.533 133.931 47.1959 116.445L34.9349 108.75C30.7167 120.132 28.8227 134.937 28.7129 147.152H35.7858Z"
            fill="#C4EED7"
    />
    <path
            d="M52.0274 87.1284C59.1735 91.4655 60.1983 104.349 56.5292 109.482L36.1339 124.68C49.2092 131.808 58.1762 132.375 57.0782 138.176C58.7069 144.371 53.0705 149.412 49.9503 149.028C46.8302 148.644 31.8425 144.654 21.2377 133.766C11.0537 123.326 35.8868 92.6276 52.0274 87.1284Z"
            fill="#C4EED7"
    />
    <path
            d="M57.0779 138.707C57.0413 138.707 57.0138 138.707 56.9772 138.698C56.6936 138.643 56.5106 138.368 56.5655 138.085C56.6021 137.893 57.4164 133.327 51.9356 132.256C47.7906 131.451 36.3714 125.403 35.8956 125.147C35.7309 125.055 35.6211 124.891 35.612 124.698C35.6028 124.515 35.6943 124.332 35.859 124.232C35.9688 124.159 47.1593 117.012 50.4533 113.151C50.6454 112.931 50.9748 112.904 51.1944 113.096C51.414 113.288 51.4415 113.618 51.2493 113.837C48.3305 117.259 39.8027 122.923 37.1858 124.625C39.8942 126.034 48.7605 130.554 52.1369 131.213C54.2322 131.625 55.7694 132.531 56.7027 133.931C58.0478 135.935 57.6177 138.185 57.5994 138.277C57.5445 138.533 57.3249 138.707 57.0779 138.707Z"
            fill="#0E0E0E"
    />
    <path
            d="M58.1211 89.7362C58.1211 93.8628 70.501 96.6078 74.5453 92.2616C75.1584 91.6119 75.5793 90.7976 75.744 89.8094L78.0772 79.3509L63.2908 73.7786L62.8516 75.1419L58.1211 89.7362Z"
            fill="#F7A594"
    />
    <path
            d="M75.9637 88.3637L78.297 77.9052L64.3066 74.1354C60.6924 84.9141 73.6122 93.5243 75.9637 88.3637Z"
            fill="#D97661"
    />
    <path
            d="M60.043 70.8323C61.4978 81.0345 71.3707 88.1349 78.1325 87.1193C84.8944 86.1036 92.4157 76.6517 90.97 66.4403C89.5243 56.2289 81.4174 48.9455 72.8804 50.1533C64.3435 51.3702 58.5973 60.6209 60.043 70.8323Z"
            fill="#F7A594"
    />
    <path
            d="M67.5908 52.1114C75.5147 44.2515 81.7825 48.6252 87.6476 53.429C91.7651 56.8053 94.684 59.2301 98.8289 58.9647C93.2657 70.3748 76.4572 67.3553 69.4574 58.6902C70.1986 64.3358 64.6811 70.3656 60.0421 70.8323C57.2239 64.9854 58.7519 51.5807 67.5908 52.1114Z"
            fill="#0E0E0E"
    />
    <path
            d="M61.8267 74.6753C64.0907 74.6753 65.9259 72.84 65.9259 70.5761C65.9259 68.3121 64.0907 66.4769 61.8267 66.4769C59.5628 66.4769 57.7275 68.3121 57.7275 70.5761C57.7275 72.84 59.5628 74.6753 61.8267 74.6753Z"
            fill="#F7A594"
    />
    <path
            d="M81.4354 79.2777C80.5204 79.2777 79.4407 78.7196 79.276 78.6372C79.1754 78.5823 79.1388 78.4542 79.1845 78.3536C79.2394 78.2529 79.3675 78.2163 79.4682 78.2621C79.9897 78.5366 81.4812 79.1588 82.0393 78.683C82.1034 78.6281 82.4053 78.1797 81.7465 75.0138C81.3897 73.3119 80.9322 71.6741 80.9322 71.6558C80.9047 71.546 80.9688 71.427 81.0786 71.3996C81.1884 71.3721 81.3073 71.4362 81.3348 71.546C81.3439 71.5643 81.8014 73.2113 82.1583 74.9223C82.8171 78.0882 82.5883 78.7653 82.3138 79.0032C82.0851 79.2045 81.7648 79.2777 81.4354 79.2777Z"
            fill="#BD4A31"
    />
    <path
            d="M74.5088 70.9787C74.4082 71.8113 73.9873 72.4518 73.5755 72.3969C73.1638 72.342 72.9076 71.6283 73.0082 70.7865C73.1089 69.9447 73.5298 69.3134 73.9415 69.3683C74.3533 69.4232 74.6186 70.1369 74.5088 70.9787Z"
            fill="#0E0E0E"
    />
    <path
            d="M87.8039 72.955C87.7033 73.7328 87.319 74.3275 86.9255 74.2818C86.5412 74.236 86.3033 73.5589 86.404 72.7812C86.5046 72.0034 86.8889 71.4087 87.2824 71.4544C87.6667 71.5002 87.8954 72.1773 87.8039 72.955Z"
            fill="#0E0E0E"
    />
    <path
            d="M72.395 82.2332C72.3218 82.2332 72.2486 82.1966 72.212 82.1234C72.1571 82.0227 72.1937 81.8946 72.2944 81.8397C74.4812 80.6594 76.3112 81.428 76.3844 81.4646C76.4942 81.5103 76.54 81.6384 76.4942 81.7391C76.4485 81.8489 76.3204 81.8946 76.2197 81.8489C76.2014 81.8397 74.4904 81.1352 72.4957 82.2057C72.4682 82.224 72.4316 82.2332 72.395 82.2332Z"
            fill="#803221"
    />
    <path
            d="M70.9861 68.8559C70.9495 68.8559 70.9221 68.8467 70.8855 68.8284C70.7848 68.7735 70.7391 68.6454 70.794 68.5448C70.8031 68.5265 71.9286 66.4403 74.5272 66.8795C74.6461 66.8978 74.7193 67.0076 74.701 67.1265C74.6827 67.2455 74.5729 67.3187 74.454 67.3004C72.1573 66.9161 71.1691 68.7278 71.16 68.7461C71.1325 68.8101 71.0593 68.8559 70.9861 68.8559Z"
            fill="#803221"
    />
    <path
            d="M89.0022 71.7015C88.9015 71.7015 88.8192 71.6375 88.8009 71.5368C88.4898 70.1369 87.3003 69.8075 87.2546 69.7983C87.1448 69.7709 87.0716 69.6519 87.1082 69.5421C87.1356 69.4323 87.2545 69.3591 87.3643 69.3866C87.4284 69.4049 88.8558 69.7892 89.2218 71.4453C89.2493 71.5551 89.176 71.6741 89.0571 71.6924C89.0296 71.7015 89.0113 71.7015 89.0022 71.7015Z"
            fill="#803221"
    />
    <path
            d="M63.9317 72.827H63.9226C63.8036 72.8178 63.7213 72.7263 63.7213 72.6074C63.767 71.8113 63.5657 71.1617 63.1357 70.695C62.4128 69.899 61.2599 69.8532 61.2508 69.8532C61.1318 69.8532 61.0403 69.7526 61.0495 69.6336C61.0586 69.5147 61.1501 69.4232 61.2691 69.4323C61.324 69.4323 62.605 69.4964 63.4468 70.4114C63.9592 70.9695 64.1879 71.7107 64.1422 72.6257C64.133 72.7446 64.0415 72.827 63.9317 72.827Z"
            fill="#BD4A31"
    />
    <path
            d="M92.9184 122.191C89.7251 122.017 86.2115 121.285 82.6704 120.242L82.46 110.69C82.46 110.69 86.6873 119.465 92.9184 122.191Z"
            fill="#C4EED7"
    />
    <path
            d="M52.2837 147.528C50.9478 145.597 51.7073 138.551 57.7097 137.463C68.1956 135.559 71.9837 141.315 72.981 145.423C73.2372 146.494 72.2673 147.628 71.3615 147.528C70.4556 147.427 69.8243 146.924 69.6779 146.1C69.4949 145.121 68.9733 143.904 67.8479 143.273C68.9276 145.396 68.4792 147.528 65.5238 147.528H52.2837Z"
            fill="#F7A594"
    />
    <path
            d="M73.8316 30.5723C72.0382 30.5723 71.3702 32.5761 71.3702 32.5761L69.2383 31.5971C69.2383 31.5971 70.2356 28.1933 73.8316 28.1933C76.3387 28.1933 78.2785 30.0507 78.2785 32.3657C78.2785 34.2048 77.3177 35.0741 75.9635 36.2636C75.2315 36.9132 75.1949 36.9498 75.1949 37.7001V38.7615H72.7153V37.2152C72.7153 35.861 73.2368 35.5682 74.591 34.397C75.3596 33.729 75.7805 33.3356 75.7805 32.3565C75.7714 31.3866 74.8747 30.5723 73.8316 30.5723ZM73.9597 39.9968C74.8747 39.9968 75.6067 40.7288 75.6067 41.6438C75.6067 42.5588 74.8747 43.2908 73.9597 43.2908C73.0447 43.2908 72.3127 42.5588 72.3127 41.6438C72.3127 40.7288 73.0447 39.9968 73.9597 39.9968Z"
            fill="black"
    />
    <path
            d="M46.9769 42.1928C45.76 43.2725 46.5194 45.0293 46.5194 45.0293L44.4881 45.6515C44.4881 45.6515 43.1156 42.751 45.5495 40.5916C47.2423 39.0818 49.6762 39.1733 51.067 40.738C52.1741 41.9824 52.0552 43.1536 51.8447 44.7731C51.7441 45.6515 51.7349 45.7064 52.1924 46.2097L52.8329 46.9325L51.1585 48.424L50.2252 47.3809C49.4108 46.4659 49.5847 45.9535 49.8043 44.3431C49.9232 43.4281 49.969 42.9065 49.3742 42.2477C48.7795 41.5798 47.6815 41.5706 46.9769 42.1928ZM52.7323 48.4972C53.3545 47.9482 54.2878 48.0031 54.8368 48.6161C55.3858 49.2292 55.3309 50.1716 54.7178 50.7206C54.0956 51.2696 53.1623 51.2147 52.6133 50.6017C52.0643 49.9795 52.1192 49.0462 52.7323 48.4972Z"
            fill="black"
    />
    <path
            d="M148.111 145.643C147.507 146.237 146.647 146.512 145.796 146.512H120.405C119.691 146.512 119.097 145.926 119.097 145.204C119.097 144.481 119.691 143.895 120.405 143.895H145.943C146.162 143.895 146.29 143.767 146.355 143.685C146.409 143.611 146.51 143.456 146.455 143.227L137.305 103.809L135.338 95.3452H130.681V92.6276H136.262V92.6551C136.893 92.6093 137.47 93.0028 137.625 93.6341L139.135 100.158L148.99 142.632C149.246 143.694 148.935 144.838 148.111 145.643Z"
            fill="#4F4F4F"
    />
    <path
            d="M139.126 100.167L137.296 103.827L135.329 95.3635H130.672V92.6459H136.253V92.6734C136.885 92.6276 137.461 93.0211 137.617 93.6524L139.126 100.167Z"
            fill="#2E2E2E"
    />
    <path
            d="M86.3672 146.512H113.177C113.598 146.512 113.945 146.173 113.945 145.743C113.945 145.322 113.607 144.975 113.177 144.975H86.3672C85.9463 144.975 85.5986 145.313 85.5986 145.743C85.5986 146.164 85.9463 146.512 86.3672 146.512Z"
            fill="#4F4F4F"
    />
    <path
            d="M89.9446 144.407H87.1904V145.597H89.9446V144.407Z"
            fill="#4F4F4F"
    />
    <path
            d="M94.3547 144.407H91.6006V145.597H94.3547V144.407Z"
            fill="#4F4F4F"
    />
    <path
            d="M98.7659 144.407H96.0117V145.597H98.7659V144.407Z"
            fill="#4F4F4F"
    />
    <path
            d="M103.176 144.407H100.422V145.597H103.176V144.407Z"
            fill="#4F4F4F"
    />
    <path
            d="M107.586 144.407H104.832V145.597H107.586V144.407Z"
            fill="#4F4F4F"
    />
    <path
            d="M111.996 144.407H109.242V145.597H111.996V144.407Z"
            fill="#4F4F4F"
    />
    <path
            d="M146.867 49.9429L143.958 48.8632L111.786 135.349L114.696 136.429C115.117 135.935 115.519 135.422 115.922 134.91L146.867 49.9612V49.9429Z"
            fill="#4F4F4F"
    />
    <path
            d="M115.922 134.91C119.271 130.618 121.952 125.833 123.855 120.718L143.628 67.5749C145.696 62.0117 146.794 56.1374 146.867 50.1991V49.9612L115.922 134.91Z"
            fill="#2E2E2E"
    />
    <path
            d="M158.982 145.643C159.586 146.237 160.446 146.512 161.297 146.512H186.688C187.402 146.512 187.997 145.926 187.997 145.204C187.997 144.481 187.402 143.895 186.688 143.895H161.151C160.931 143.895 160.803 143.767 160.739 143.685C160.684 143.611 160.583 143.456 160.638 143.227L169.788 103.809L171.756 95.3452H176.413V92.6276H170.831V92.6551C170.2 92.6093 169.624 93.0028 169.468 93.6341L167.958 100.158L158.113 142.642C157.848 143.694 158.159 144.838 158.982 145.643Z"
            fill="#4F4F4F"
    />
    <path
            d="M167.968 100.167L169.798 103.827L171.765 95.3635H176.422V92.6459H170.841V92.6734C170.21 92.6276 169.633 93.0211 169.478 93.6524L167.968 100.167Z"
            fill="#2E2E2E"
    />
    <path
            d="M160.227 49.9429L163.136 48.8632L195.308 135.358L192.398 136.438C191.977 135.944 191.574 135.431 191.172 134.919L160.227 49.9703V49.9429Z"
            fill="#4F4F4F"
    />
    <path
            d="M191.172 134.91C187.823 130.618 185.142 125.833 183.239 120.718L163.466 67.5658C161.398 62.0026 160.3 56.1283 160.227 50.1899V49.952L191.172 134.91Z"
            fill="#2E2E2E"
    />
    <path
            d="M218.109 146.512H191.3C190.879 146.512 190.531 146.173 190.531 145.743C190.531 145.322 190.87 144.975 191.3 144.975H218.109C218.53 144.975 218.878 145.313 218.878 145.743C218.869 146.164 218.53 146.512 218.109 146.512Z"
            fill="#4F4F4F"
    />
    <path
            d="M217.285 144.407H214.531V145.597H217.285V144.407Z"
            fill="#4F4F4F"
    />
    <path
            d="M212.875 144.407H210.121V145.597H212.875V144.407Z"
            fill="#4F4F4F"
    />
    <path
            d="M208.465 144.407H205.711V145.597H208.465V144.407Z"
            fill="#4F4F4F"
    />
    <path
            d="M204.055 144.407H201.301V145.597H204.055V144.407Z"
            fill="#4F4F4F"
    />
    <path
            d="M199.645 144.407H196.891V145.597H199.645V144.407Z"
            fill="#4F4F4F"
    />
    <path
            d="M195.235 144.407H192.48V145.597H195.235V144.407Z"
            fill="#4F4F4F"
    />
    <path
            d="M308.74 147.784C308.74 147.079 308.173 146.512 307.468 146.512H159.586C158.763 146.512 158.095 147.079 158.095 147.784C158.095 148.488 158.763 149.056 159.586 149.056H307.468C308.173 149.056 308.74 148.488 308.74 147.784Z"
            fill="#153566"
    />
    <path
            d="M149.073 147.784C149.073 147.079 148.505 146.512 147.801 146.512H6.177C5.3535 146.512 4.68555 147.079 4.68555 147.784C4.68555 148.488 5.3535 149.056 6.177 149.056H147.801C148.505 149.056 149.073 148.488 149.073 147.784Z"
            fill="#153566"
    />
    <path
            d="M113.881 27.6535L102.343 47.6371C101.749 48.671 102.49 49.9703 103.688 49.9703H126.765C127.963 49.9703 128.704 48.6802 128.11 47.6371L116.572 27.6535C115.977 26.6195 114.476 26.6195 113.881 27.6535Z"
            fill="#FFA534"
    />
    <path
            d="M126.765 48.9729H103.689C103.478 48.9729 103.304 48.8723 103.195 48.6893C103.094 48.5063 103.094 48.305 103.195 48.122L114.733 28.1384C114.833 27.9554 115.016 27.8547 115.218 27.8547C115.428 27.8547 115.602 27.9554 115.712 28.1384L127.25 48.122C127.351 48.305 127.351 48.5063 127.25 48.6893C127.149 48.8723 126.966 48.9729 126.765 48.9729ZM103.853 48.3141H126.609L115.236 28.6142L103.853 48.3141Z"
            fill="black"
    />
    <path
            d="M115.263 42.879C114.604 42.879 114.055 42.3666 114.009 41.7078L113.625 36.0714C113.561 35.1198 114.311 34.3146 115.272 34.3146C116.224 34.3146 116.983 35.1198 116.919 36.0714L116.535 41.7078C116.471 42.3666 115.922 42.879 115.263 42.879Z"
            fill="black"
    />
    <path
            d="M115.743 46.2703C116.378 46.0072 116.679 45.2793 116.416 44.6443C116.153 44.0094 115.425 43.7078 114.79 43.9709C114.155 44.2339 113.854 44.9618 114.117 45.5968C114.38 46.2317 115.108 46.5333 115.743 46.2703Z"
            fill="black"
    />
    <path
            d="M190.842 37.9106V49.8056C190.842 51.1232 207.01 51.1232 207.01 49.8056V37.9106H190.842Z"
            fill="#2C70D9"
    />
    <path
            d="M198.921 44.398C200.023 44.398 200.916 43.5049 200.916 42.4033C200.916 41.3016 200.023 40.4086 198.921 40.4086C197.82 40.4086 196.927 41.3016 196.927 42.4033C196.927 43.5049 197.82 44.398 198.921 44.398Z"
            fill="#001E4D"
    />
    <path
            d="M198.922 48.4148C198.473 48.4148 198.107 48.0488 198.107 47.6005V43.0255H199.745V47.6005C199.745 48.0488 199.379 48.4148 198.922 48.4148Z"
            fill="#001E4D"
    />
    <path
            d="M205.592 37.1969H203.954V33.0886C203.954 30.3161 201.694 28.0561 198.921 28.0561C196.149 28.0561 193.889 30.3161 193.889 33.0886V33.8938H192.251V33.0886C192.251 29.4103 195.243 26.4182 198.921 26.4182C202.6 26.4182 205.592 29.4103 205.592 33.0886V37.1969Z"
            fill="#2C70D9"
    />
    <path
            d="M207.467 54.8472C210.504 54.8472 212.966 52.3852 212.966 49.3481C212.966 46.311 210.504 43.8489 207.467 43.8489C204.43 43.8489 201.968 46.311 201.968 49.3481C201.968 52.3852 204.43 54.8472 207.467 54.8472Z"
            fill="#FFA534"
    />
    <path
            d="M207.467 54.1061C204.841 54.1061 202.709 51.9741 202.709 49.3481C202.709 46.722 204.841 44.5901 207.467 44.5901C210.093 44.5901 212.225 46.722 212.225 49.3481C212.225 51.9741 210.093 54.1061 207.467 54.1061ZM207.467 44.9927C205.061 44.9927 203.102 46.9508 203.102 49.3572C203.102 51.7637 205.061 53.7218 207.467 53.7218C209.873 53.7218 211.832 51.7637 211.832 49.3572C211.832 46.9416 209.873 44.9927 207.467 44.9927Z"
            fill="black"
    />
    <path
            d="M207.467 51.0592C207.12 51.0592 206.827 50.7847 206.799 50.437L206.598 47.4632C206.561 46.96 206.964 46.5299 207.467 46.5299C207.971 46.5299 208.373 46.96 208.337 47.4632L208.135 50.437C208.108 50.7847 207.815 51.0592 207.467 51.0592Z"
            fill="black"
    />
    <path
            d="M207.467 52.8983C207.831 52.8983 208.126 52.6033 208.126 52.2395C208.126 51.8756 207.831 51.5807 207.467 51.5807C207.104 51.5807 206.809 51.8756 206.809 52.2395C206.809 52.6033 207.104 52.8983 207.467 52.8983Z"
            fill="black"
    />
</svg>